# xmcd
#
# Track frame offsets:
#	150
#	14760
#	25425
#	37824
#	51789
#	66235
#	79703
#	94671
#	107019
#	121056
#	137702
#
# Disc length: 1994 seconds
#
# Revision: 1
# Processed by: cddbd v1.5.2PL0 Copyright (c) Steve Scherf et al.
# Submitted via: audiograbber 1.83.01
#
DISCID=8b07c80b
DTITLE=Various Artist - Dollywood Presents Southern Gospel Jubilee Volume 4
DYEAR=1900
DGENRE=Gospel
TTITLE0=The Kingsmen - Somebody Run
TTITLE1=Poet Voices - Gonna Walk
TTITLE2=The Talley Trio - Get All Excited
TTITLE3=The Isaacs - I Have A Father Who Can
TTITLE4=Kingdom Heirs - The Grace Way
TTITLE5=The McKameys - It Satisfies Me
TTITLE6=Perry Sisters - He Took The Grave Clothes
TTITLE7=Kirk Talley - Clap Your Hands All Ye People
TTITLE8=Amy Lambert - I Can't Lose For Winning
TTITLE9=Karen Peck and New River - When Jesus Passes By
TTITLE10=Won By One - When I Reached Up
EXTD=
EXTT0=
EXTT1=
EXTT2=
EXTT3=
EXTT4=
EXTT5=
EXTT6=
EXTT7=
EXTT8=
EXTT9=
EXTT10=
PLAYORDER=
